<?xml version="1.0" encoding="UTF-8" standalone="no"?>
<svg width="120" height="120" viewBox="0 0 120 120" fill="none" xmlns="http://www.w3.org/2000/svg">
  <!-- רקע עגול -->
  <circle cx="60" cy="60" r="60" fill="#2B31AD" />
  
  <!-- הספרה 4 -->
  <path d="M34.8 80V67.9H26.7V56.9H34.8V47.7H47.4V56.9H59.1V67.9H47.4V80H34.8Z" fill="white"/>
  
  <!-- הספרה 9 -->
  <path d="M76.8 80C72.8 80 69.4333 79.3333 66.6 78C63.8 76.6667 61.6333 74.7333 60.1 72.2C58.5667 69.6667 57.8 66.6 57.8 63C57.8 59.4 58.5667 56.3667 60.1 53.9C61.6333 51.4333 63.8 49.5333 66.6 48.2C69.4333 46.8667 72.8 46.2 76.7 46.2C80.6333 46.2 84 46.8667 86.8 48.2C89.6 49.5333 91.7667 51.4333 93.3 53.9C94.8333 56.3667 95.6 59.4 95.6 63C95.6 66.6 94.8333 69.6667 93.3 72.2C91.7667 74.7333 89.6 76.6667 86.8 78C84 79.3333 80.6333 80 76.7 80H76.8ZM76.7 69.8C79.5 69.8 81.7 69.0333 83.3 67.5C84.9 65.9667 85.7 63.8 85.7 61C85.7 58.2 84.9 56.0333 83.3 54.5C81.7 52.9667 79.5 52.2 76.7 52.2C73.9 52.2 71.7 52.9667 70.1 54.5C68.5 56.0333 67.7 58.2 67.7 61C67.7 63.8 68.5 65.9667 70.1 67.5C71.7 69.0333 73.9 69.8 76.7 69.8Z" fill="white"/>
  
  <!-- אלמנט ניקוד - חולם -->
  <circle cx="76" cy="35" r="5" fill="white" />
  
  <!-- אלמנט ניקוד - שווא -->
  <circle cx="49" cy="90" r="3" fill="white" />
  <circle cx="58" cy="90" r="3" fill="white" />
</svg>
